<?xml version="1.0" encoding="utf-8"?>
<!-- Generator: Adobe Illustrator 28.3.0, SVG Export Plug-In . SVG Version: 6.00 Build 0)  -->
<svg version="1.1" id="Capa_1" xmlns="http://www.w3.org/2000/svg" xmlns:xlink="http://www.w3.org/1999/xlink" x="0px" y="0px"
	 viewBox="0 0 800 800" style="enable-background:new 0 0 800 800;" xml:space="preserve">
<style type="text/css">
	.st0{fill:#E71E25;}
</style>
<g>
	<path class="st0" d="M261.3,384.4c-5.5,25.2-28,44.2-54.9,44.2c-7.2,0-13,5.8-13,13s5.8,13,13,13c41.1,0,75.2-30.3,81.2-69.8
		c25.2-2.7,48.4-13.9,66.3-32.3c5-5.1,4.9-13.3-0.2-18.3c-5.1-5-13.3-4.9-18.3,0.2c-15.9,16.2-37.2,25.2-59.9,25.2
		c-46.2,0-83.8-37.6-83.8-83.8c0-7.2-5.8-13-13-13s-13,5.8-13,13C165.9,331.3,207.5,377.3,261.3,384.4z"/>
	<path class="st0" d="M316.2,496.8c0-7.2-5.8-13-13-13c-60.5,0-109.7,49.2-109.7,109.7c0,0.6,0,1.3,0,1.9c-4.8-0.6-9.7-1-14.7-1
		c-7.2,0-13,5.8-13,13c0,7.2,5.8,13,13,13c46.2,0,83.8,37.6,83.8,83.8c0,7.2,5.8,13,13,13s13-5.8,13-13c0-46-28.4-85.4-68.6-101.7
		c-0.3-2.9-0.5-5.9-0.5-8.9c0-46.2,37.6-83.8,83.8-83.8C310.4,509.7,316.2,503.9,316.2,496.8z"/>
	<path class="st0" d="M758.5,386.2c0-29.5-11.8-57.5-32.6-78c3.3-10.6,5-21.5,5-32.6c0-53.3-38.3-97.9-88.8-107.7
		c3.9-9.6,5.9-19.9,5.9-30.5c0-33.8-20.5-62.9-49.8-75.4C549.5,23.1,496.2,0,455.3,0c-22.7,0-42.9,11.2-55.3,28.3
		C387.6,11.2,367.4,0,344.7,0c-40.9,0-94.2,23.1-142.9,61.9c-29.2,12.6-49.8,41.6-49.8,75.4c0,10.6,2,20.9,5.9,30.5
		c-50.5,9.8-88.8,54.3-88.8,107.7c0,11.1,1.7,22,5,32.6c-20.8,20.6-32.6,48.5-32.6,78c0,23.1,7.2,44.5,19.4,62.2
		c-12.7,18.3-19.4,39.7-19.4,62.2c0,39.9,21.7,76.4,56.2,95.7c-0.6,4.9-0.9,9.9-0.9,14.9c0,53.8,35.1,101.4,86,117.6
		c22.2,37.9,62.5,61.2,106.6,61.2c48.4,0,90.3-28,110.6-68.6C420.3,772,462.2,800,510.6,800c44.1,0,84.5-23.3,106.6-61.2
		c50.9-16.2,86-63.8,86-117.6c0-5-0.3-9.9-0.9-14.9c34.4-19.3,56.2-55.8,56.2-95.7c0-22.5-6.7-43.9-19.4-62.2
		C751.4,430.7,758.5,409.2,758.5,386.2z M289.4,774.1c-36.3,0-69.4-20-86.4-52.3c-1.7-3.2-4.6-5.5-8.1-6.5
		c-42.5-11.4-72.2-50.2-72.2-94.2c0-6.6,0.7-13.2,2-19.6c1.2-6-1.9-12-7.4-14.4c-30.3-13.5-49.8-43.5-49.8-76.6
		c0-15,3.9-29.4,11.3-42.1c19.3,17.1,44.7,27.4,72.5,27.4c7.2,0,13-5.8,13-13c0-7.2-5.8-13-13-13c-46.2,0-83.8-37.6-83.8-83.8
		c0-24.9,11-48.3,30.1-64.3c4.3-3.6,5.8-9.6,3.7-14.8C97.1,297,95,286.4,95,275.6c0-46.2,37.6-83.8,83.8-83.8s83.8,37.6,83.8,83.8
		c0,7.2,5.8,13,13,13s13-5.8,13-13c0-58.1-45.4-105.8-102.7-109.5c-5.2-8.7-7.9-18.5-7.9-28.8c0-23.1,14-43,34-51.6
		c0.8-0.2,1.5-0.5,2.3-0.9c6.2-2.4,12.9-3.7,19.9-3.7c21.7,0,41.1,12.1,50.6,31.7c3.1,6.4,10.9,9.1,17.3,6c6.4-3.1,9.1-10.9,6-17.3
		c-10.8-22.3-31.3-38.3-54.9-44c33.1-20.2,65.6-31.6,91.6-31.6c23.3,0,42.3,19,42.3,42.3v167.7c-11.6-9.2-26.3-14.8-42.3-14.8
		c-7.2,0-13,5.8-13,13c0,7.2,5.8,13,13,13c23.3,0,42.3,19,42.3,42.3v311.5c-16.1-20.8-38.8-36.5-65.5-43.7c-6.9-1.9-14,2.2-15.9,9.2
		c-1.9,6.9,2.2,14,9.2,15.9c42.6,11.4,72.3,50.2,72.3,94.2C387,730.3,343.2,774.1,289.4,774.1z M682.8,587.1
		c-5.6,2.5-8.6,8.5-7.4,14.4c1.3,6.4,2,13,2,19.6c0,44-29.7,82.7-72.2,94.2c-3.5,0.9-6.4,3.3-8.1,6.5c-17,32.2-50.1,52.3-86.4,52.3
		c-53.8,0-97.6-43.8-97.6-97.6c0-3.6-0.2-7.3-0.5-10.8c0.3-1.1,0.5-2.3,0.5-3.5v-428c0-23.3,19-42.3,42.3-42.3c7.2,0,13-5.8,13-13
		s-5.8-13-13-13c-16,0-30.7,5.5-42.3,14.8V68.3c0-23.3,19-42.3,42.3-42.3c26,0,58.6,11.5,91.6,31.6c-23.6,5.7-44.1,21.7-54.9,44
		c-3.1,6.4-0.4,14.2,6,17.3c6.4,3.1,14.2,0.4,17.3-6c9.5-19.5,28.9-31.7,50.6-31.7c7,0,13.7,1.3,19.9,3.7c0.7,0.4,1.5,0.7,2.3,0.9
		c20,8.6,34,28.5,34,51.6c0,10.2-2.7,20.1-7.9,28.8c-57.2,3.6-102.7,51.3-102.7,109.5c0,7.2,5.8,13,13,13s13-5.8,13-13
		c0-46.2,37.6-83.8,83.8-83.8c46.2,0,83.8,37.6,83.8,83.8c0,10.8-2.1,21.4-6.2,31.5c-2.1,5.2-0.6,11.2,3.7,14.8
		c19.1,16,30.1,39.4,30.1,64.3c0,46.2-37.6,83.8-83.8,83.8c-7.2,0-13,5.8-13,13c0,7.2,5.8,13,13,13c27.8,0,53.1-10.4,72.5-27.4
		c7.4,12.7,11.3,27.1,11.3,42.1C732.6,543.6,713.1,573.7,682.8,587.1z"/>
	<path class="st0" d="M621.2,414.7c-26.8,0-49.3-18.9-54.9-44.2c53.8-7,95.5-53.1,95.5-108.8c0-7.2-5.8-13-13-13s-13,5.8-13,13
		c0,46.2-37.6,83.8-83.8,83.8c-22.7,0-44-8.9-59.9-25.2c-5-5.1-13.2-5.2-18.3-0.2c-5.1,5-5.2,13.2-0.2,18.3
		c18,18.3,41.2,29.6,66.3,32.3c6,39.4,40.1,69.8,81.2,69.8c7.2,0,13-5.8,13-13S628.3,414.7,621.2,414.7z"/>
	<path class="st0" d="M579.7,566.7c-5,0-9.9,0.4-14.7,1c0-0.6,0-1.3,0-1.9c0-60.5-49.2-109.7-109.7-109.7c-7.2,0-13,5.8-13,13
		s5.8,13,13,13c46.2,0,83.8,37.6,83.8,83.8c0,3-0.2,5.9-0.5,8.9C498.4,591,470,630.5,470,676.5c0,7.2,5.8,13,13,13
		c7.2,0,13-5.8,13-13c0-46.2,37.6-83.8,83.8-83.8c7.2,0,13-5.8,13-13C592.7,572.5,586.9,566.7,579.7,566.7z"/>
</g>
</svg>
